<svg aria-hidden="true" style="position: absolute; width: 0; height: 0; overflow: hidden;" version="1.1" xmlns="http://www.w3.org/2000/svg" xmlns:xlink="http://www.w3.org/1999/xlink">
<defs>
<symbol id="ellipse" viewBox="0 0 27 32">
<path d="M27.393 15.946c0 8.491-6.064 15.375-13.543 15.375s-13.543-6.884-13.543-15.375c0-8.493 6.064-15.378 13.543-15.378s13.543 6.885 13.543 15.378z"></path>
</symbol>
<symbol id="house" viewBox="0 0 29 32">
<path stroke-linejoin="round" stroke-linecap="round" stroke-miterlimit="4" stroke-width="2.6016" d="M24.497 30.691h-20.391c-1.516 0-2.745-1.395-2.745-3.116v-16.582l12.94-9.682 12.94 9.682v16.582c0 1.721-1.229 3.116-2.745 3.116z"></path>
</symbol>
<symbol id="smile" viewBox="0 0 70 32">
<path d="M35.163 31.518c-13.429 0-25.949-7.544-33.49-20.178-1.978-3.314-1.215-7.82 1.704-10.065 2.919-2.247 6.889-1.379 8.866 1.933 5.163 8.651 13.731 13.815 22.92 13.815s17.757-5.165 22.92-13.815c1.977-3.312 5.947-4.18 8.866-1.933 2.919 2.245 3.681 6.751 1.704 10.065-7.541 12.634-20.061 20.178-33.49 20.178z"></path>
</symbol>
</defs>
</svg>
